# xmcd CD database file
#
# Track frame offsets:
#	150
#	25799
#	138298
#	153823
#	179397
#	262421
#
# Disc length: 3681 seconds
#
# Revision: 0
# Processed by: cddbd v1.5.2PL0 Copyright (c) Steve Scherf et al.
# Submitted via: CDex 1.70beta2
#
DISCID=4a0e5f06
DTITLE=Dr. Frank Kinslow - Quantenheilung im Alltag 2 CD1 
DYEAR=2010
DGENRE=New Age
TTITLE0=Vorwort
TTITLE1=Einführung
TTITLE2=Quantenheilung lernen
TTITLE3=Das Eu-Gefühl
TTITLE4=Wann Sie Quantenheilung anwenden können
TTITLE5=Aus der universellen Liebe heraus kommunizieren
EXTD=YEAR: 2010
EXTT0=
EXTT1=
EXTT2=
EXTT3=
EXTT4=
EXTT5=
PLAYORDER=
